<svg xmlns="http://www.w3.org/2000/svg" xmlns:xlink="http://www.w3.org/1999/xlink" viewBox="0 0 1367 769">
  <defs>
    <style>
      .cls-1,
      .cls-3,
      .cls-4,
      .cls-9 {
        fill: none;
      }
      .cls-2 {
        fill: red;
      }
      .cls-3 {
        stroke: #0071bc;
      }
      .cls-3,
      .cls-4,
      .cls-9 {
        stroke-miterlimit: 10;
      }
      .cls-4 {
        stroke: #ed1c24;
      }
      .cls-5 {
        fill: #fff;
      }
      .cls-6 {
        fill: #f0f;
      }
      .cls-7 {
        fill: aqua;
      }
      .cls-10,
      .cls-8 {
        font-size: 48.76px;
      }
      .cls-8 {
        fill: blue;
        font-family: Quicksand-Light, Quicksand;
      }
      .cls-9 {
        stroke: #000;
        stroke-width: 2px;
      }
      .cls-10 {
        font-family: QuicksandDash-Regular, Quicksand;
      }
      .cls-11 {
        fill: url("#Memphis_1");
      }
    </style>
    <pattern id="Memphis_1" data-name="Memphis #1" width="780.24" height="993.48" patternUnits="userSpaceOnUse" viewBox="0 0 780.24 993.48"><rect class="cls-1" width="780.24" height="993.48"/>
      <g id="Pattern"><path class="cls-2" d="M692.17,801.79a10.61,10.61,0,0,1,17.51,5.58l3.77,17.25,3.77,17.25a10.61,10.61,0,0,1-13.59,12.37l-16.82-5.36L670,843.52a10.61,10.61,0,0,1-3.92-18l13.06-11.89Z"/><path class="cls-3" d="M702.84,935.33c3.83-5,10.18-.14,14-5.13s-2.53-9.86,1.3-14.86,10.18-.14,14-5.13-2.52-9.86,1.3-14.87,10.18-.14,14-5.14"/><polyline class="cls-4" points="669.23 957.29 670.91 979.42 687.16 964.3 688.85 986.43 705.1 971.3 706.79 993.44"/><path class="cls-5" d="M692,894.55c0,6.14-14.44,6.74-18.46,10.76s-4.63,18.46-10.76,18.46-6.74-14.44-10.76-18.46-18.46-4.63-18.46-10.76,14.44-6.74,18.46-10.76,4.63-18.46,10.76-18.46,6.74,14.44,10.76,18.46S692,888.42,692,894.55Z"/><path
        class="cls-6"
        d="M588.64,902.81l5.94,4.57a4.14,4.14,0,0,0,3.8.66l7.13-2.3a4.14,4.14,0,0,1,5.18,5.33l-2.51,7.06a4.14,4.14,0,0,0,.55,3.82l4.39,6.07a4.14,4.14,0,0,1-3.47,6.57l-7.49-.2a4.14,4.14,0,0,0-3.46,1.7l-4.41,6.05a4.14,4.14,0,0,1-7.32-1.27l-2.12-7.18a4.14,4.14,0,0,0-2.69-2.77L575,928.59a4.14,4.14,0,0,1-1.06-7.36l6.18-4.24a4.14,4.14,0,0,0,1.8-3.41v-7.49A4.14,4.14,0,0,1,588.64,902.81Z"/><path class="cls-7" d="M773.28,870l-11.53-11.53a20.84,20.84,0,0,1,0-29.48l11.53-11.53a20.84,20.84,0,0,1,29.48,0L814.29,829a20.84,20.84,0,0,1,0,29.48L802.76,870A20.84,20.84,0,0,1,773.28,870Z"/>
        <text class="cls-8" transform="translate(592.25 863.39)">X</text><polygon class="cls-5" points="771.97 967.22 827.32 952.39 786.8 911.87 771.97 967.22"/><path class="cls-9" d="M695.41,798.56a10.61,10.61,0,0,1,17.51,5.58l3.77,17.25,3.77,17.25A10.61,10.61,0,0,1,706.86,851L690,845.65l-16.82-5.36a10.61,10.61,0,0,1-3.92-18l13.06-11.89Z"/><path class="cls-9" d="M706.08,932.1c3.83-5,10.18-.14,14-5.13s-2.53-9.86,1.3-14.86,10.18-.14,14-5.13-2.52-9.86,1.3-14.87,10.18-.14,14-5.14"/><polyline class="cls-9" points="672.46 954.05 674.15 976.19 690.4 961.06 692.08 983.19 708.33 968.07 710.03 990.21"/><path class="cls-9" d="M695.27,891.32c0,6.14-14.44,6.74-18.46,10.76s-4.63,18.46-10.76,18.46-6.74-14.44-10.76-18.46-18.46-4.63-18.46-10.76,14.44-6.74,18.46-10.76S659.91,862.1,666,862.1s6.74,14.44,10.76,18.46S695.27,885.18,695.27,891.32Z"/><path
          class="cls-9"
          d="M591.87,899.58l5.94,4.57a4.14,4.14,0,0,0,3.8.66l7.13-2.3a4.14,4.14,0,0,1,5.18,5.33l-2.51,7.06a4.14,4.14,0,0,0,.55,3.82l4.39,6.07a4.14,4.14,0,0,1-3.47,6.57l-7.49-.2a4.14,4.14,0,0,0-3.46,1.7l-4.41,6.05a4.14,4.14,0,0,1-7.32-1.27l-2.12-7.18a4.14,4.14,0,0,0-2.69-2.77l-7.12-2.33a4.14,4.14,0,0,1-1.06-7.36l6.18-4.24a4.14,4.14,0,0,0,1.8-3.41v-7.49A4.14,4.14,0,0,1,591.87,899.58Z"/>
        <text class="cls-10" transform="translate(595.48 860.15)">X</text>
        <g id="Dots"><circle cx="754.93" cy="937.61" r="3.09"/><circle cx="728.39" cy="869.1" r="3.09"/><circle cx="666.05" cy="891.32" r="3.09"/><circle cx="633.48" cy="957.57" r="3.09"/></g><path class="cls-9" d="M775.28,866l-11.53-11.53a20.84,20.84,0,0,1,0-29.48l11.53-11.53a20.84,20.84,0,0,1,29.48,0L816.29,825a20.84,20.84,0,0,1,0,29.48L804.76,866A20.84,20.84,0,0,1,775.28,866Z"/><polygon class="cls-9" points="774.97 963.22 830.32 948.39 789.8 907.87 774.97 963.22"/></g>
      <g id="Pattern-2" data-name="Pattern"><path class="cls-2" d="M432.09,801.79a10.61,10.61,0,0,1,17.51,5.58l3.77,17.25,3.77,17.25a10.61,10.61,0,0,1-13.59,12.37l-16.82-5.36-16.82-5.36a10.61,10.61,0,0,1-3.92-18L419,813.68Z"/><path class="cls-3" d="M442.77,935.33c3.83-5,10.18-.14,14-5.13s-2.53-9.86,1.3-14.86,10.18-.14,14-5.13-2.52-9.86,1.3-14.87,10.18-.14,14-5.14"/><polyline class="cls-4" points="409.15 957.29 410.83 979.42 427.08 964.3 428.77 986.43 445.02 971.3 446.71 993.44"/><path class="cls-5" d="M432,894.55c0,6.14-14.44,6.74-18.46,10.76s-4.63,18.46-10.76,18.46S396,909.34,392,905.32s-18.46-4.63-18.46-10.76,14.44-6.74,18.46-10.76,4.63-18.46,10.76-18.46,6.74,14.44,10.76,18.46S432,888.42,432,894.55Z"/><path
        class="cls-6"
        d="M328.56,902.81l5.94,4.57a4.14,4.14,0,0,0,3.8.66l7.13-2.3a4.14,4.14,0,0,1,5.18,5.33l-2.51,7.06a4.14,4.14,0,0,0,.55,3.82L353,928a4.14,4.14,0,0,1-3.47,6.57l-7.49-.2a4.14,4.14,0,0,0-3.46,1.7l-4.41,6.05a4.14,4.14,0,0,1-7.32-1.27l-2.12-7.18a4.14,4.14,0,0,0-2.69-2.77L315,928.59a4.14,4.14,0,0,1-1.06-7.36l6.18-4.24a4.14,4.14,0,0,0,1.8-3.41v-7.49A4.14,4.14,0,0,1,328.56,902.81Z"/><path class="cls-7" d="M513.2,870l-11.53-11.53a20.84,20.84,0,0,1,0-29.48l11.53-11.53a20.84,20.84,0,0,1,29.48,0L554.21,829a20.84,20.84,0,0,1,0,29.48L542.68,870A20.84,20.84,0,0,1,513.2,870Z"/>
        <text class="cls-8" transform="translate(332.17 863.39)">X</text><polygon class="cls-5" points="511.89 967.22 567.24 952.39 526.73 911.87 511.89 967.22"/><path class="cls-9" d="M435.33,798.56a10.61,10.61,0,0,1,17.51,5.58l3.77,17.25,3.77,17.25A10.61,10.61,0,0,1,446.78,851L430,845.65l-16.82-5.36a10.61,10.61,0,0,1-3.92-18l13.06-11.89Z"/><path class="cls-9" d="M446,932.1c3.83-5,10.18-.14,14-5.13s-2.53-9.86,1.3-14.86,10.18-.14,14-5.13-2.52-9.86,1.3-14.87,10.18-.14,14-5.14"/><polyline class="cls-9" points="412.38 954.05 414.07 976.19 430.32 961.06 432 983.19 448.25 968.07 449.95 990.21"/><path class="cls-9" d="M435.19,891.32c0,6.14-14.44,6.74-18.46,10.76S412.1,920.54,406,920.54s-6.74-14.44-10.76-18.46-18.46-4.63-18.46-10.76,14.44-6.74,18.46-10.76S399.83,862.1,406,862.1s6.74,14.44,10.76,18.46S435.19,885.18,435.19,891.32Z"/><path
          class="cls-9"
          d="M331.79,899.58l5.94,4.57a4.14,4.14,0,0,0,3.8.66l7.13-2.3a4.14,4.14,0,0,1,5.18,5.33l-2.51,7.06a4.14,4.14,0,0,0,.55,3.82l4.39,6.07a4.14,4.14,0,0,1-3.47,6.57l-7.49-.2a4.14,4.14,0,0,0-3.46,1.7l-4.41,6.05a4.14,4.14,0,0,1-7.32-1.27L328,930.45a4.14,4.14,0,0,0-2.69-2.77l-7.12-2.33a4.14,4.14,0,0,1-1.06-7.36l6.18-4.24a4.14,4.14,0,0,0,1.8-3.41v-7.49A4.14,4.14,0,0,1,331.79,899.58Z"/>
        <text class="cls-10" transform="translate(335.4 860.15)">X</text>
        <g id="Dots-2" data-name="Dots"><circle cx="494.85" cy="937.61" r="3.09"/><circle cx="468.31" cy="869.1" r="3.09"/><circle cx="405.97" cy="891.32" r="3.09"/><circle cx="373.4" cy="957.57" r="3.09"/></g><path class="cls-9" d="M515.2,866l-11.53-11.53a20.84,20.84,0,0,1,0-29.48l11.53-11.53a20.84,20.84,0,0,1,29.48,0L556.21,825a20.84,20.84,0,0,1,0,29.48L544.68,866A20.84,20.84,0,0,1,515.2,866Z"/><polygon class="cls-9" points="514.89 963.22 570.24 948.39 529.73 907.87 514.89 963.22"/></g>
      <g id="Pattern-3" data-name="Pattern"><path class="cls-2" d="M172,801.79a10.61,10.61,0,0,1,17.51,5.58l3.77,17.25,3.77,17.25a10.61,10.61,0,0,1-13.59,12.37l-16.82-5.36-16.82-5.36a10.61,10.61,0,0,1-3.92-18L159,813.68Z"/><path class="cls-3" d="M182.69,935.33c3.83-5,10.18-.14,14-5.13s-2.53-9.86,1.3-14.86,10.18-.14,14-5.13-2.52-9.86,1.3-14.87,10.18-.14,14-5.14"/><polyline class="cls-4" points="149.07 957.29 150.75 979.42 167 964.3 168.69 986.43 184.94 971.3 186.63 993.44"/><path class="cls-5" d="M171.88,894.55c0,6.14-14.44,6.74-18.46,10.76s-4.63,18.46-10.76,18.46-6.74-14.44-10.76-18.46-18.46-4.63-18.46-10.76,14.44-6.74,18.46-10.76,4.63-18.46,10.76-18.46,6.74,14.44,10.76,18.46S171.88,888.42,171.88,894.55Z"/><path
        class="cls-6"
        d="M68.48,902.81l5.94,4.57a4.14,4.14,0,0,0,3.8.66l7.13-2.3a4.14,4.14,0,0,1,5.18,5.33L88,918.12a4.14,4.14,0,0,0,.55,3.82L93,928a4.14,4.14,0,0,1-3.47,6.57l-7.49-.2a4.14,4.14,0,0,0-3.46,1.7l-4.41,6.05a4.14,4.14,0,0,1-7.32-1.27l-2.12-7.18A4.14,4.14,0,0,0,62,930.91l-7.12-2.33a4.14,4.14,0,0,1-1.06-7.36L60,917a4.14,4.14,0,0,0,1.8-3.41v-7.49A4.14,4.14,0,0,1,68.48,902.81Z"/><path class="cls-7" d="M253.12,870l-11.53-11.53a20.84,20.84,0,0,1,0-29.48l11.53-11.53a20.84,20.84,0,0,1,29.48,0L294.13,829a20.84,20.84,0,0,1,0,29.48L282.6,870A20.84,20.84,0,0,1,253.12,870Z"/>
        <text class="cls-8" transform="translate(72.09 863.39)">X</text><polygon class="cls-5" points="251.81 967.22 307.16 952.39 266.65 911.87 251.81 967.22"/><path class="cls-9" d="M175.25,798.56a10.61,10.61,0,0,1,17.51,5.58l3.77,17.25,3.77,17.25A10.61,10.61,0,0,1,186.7,851l-16.82-5.36-16.82-5.36a10.61,10.61,0,0,1-3.92-18l13.06-11.89Z"/><path class="cls-9" d="M185.92,932.1c3.83-5,10.18-.14,14-5.13s-2.53-9.86,1.3-14.86,10.18-.14,14-5.13-2.52-9.86,1.3-14.87,10.18-.14,14-5.14"/><polyline class="cls-9" points="152.3 954.05 153.99 976.19 170.24 961.06 171.92 983.19 188.18 968.07 189.87 990.21"/><path class="cls-9" d="M175.11,891.32c0,6.14-14.44,6.74-18.46,10.76s-4.63,18.46-10.76,18.46-6.74-14.44-10.76-18.46-18.46-4.63-18.46-10.76,14.44-6.74,18.46-10.76,4.63-18.46,10.76-18.46,6.74,14.44,10.76,18.46S175.11,885.18,175.11,891.32Z"/><path
          class="cls-9"
          d="M71.71,899.58l5.94,4.57a4.14,4.14,0,0,0,3.8.66l7.13-2.3a4.14,4.14,0,0,1,5.18,5.33l-2.51,7.06a4.14,4.14,0,0,0,.55,3.82l4.39,6.07a4.14,4.14,0,0,1-3.47,6.57l-7.49-.2a4.14,4.14,0,0,0-3.46,1.7l-4.41,6.05A4.14,4.14,0,0,1,70,937.63l-2.12-7.18a4.14,4.14,0,0,0-2.69-2.77l-7.12-2.33A4.14,4.14,0,0,1,57.05,918l6.18-4.24a4.14,4.14,0,0,0,1.8-3.41v-7.49A4.14,4.14,0,0,1,71.71,899.58Z"/>
        <text class="cls-10" transform="translate(75.32 860.15)">X</text>
        <g id="Dots-3" data-name="Dots"><circle cx="234.77" cy="937.61" r="3.09"/><circle cx="208.23" cy="869.1" r="3.09"/><circle cx="145.89" cy="891.32" r="3.09"/><circle cx="113.32" cy="957.57" r="3.09"/></g><path class="cls-9" d="M255.12,866l-11.53-11.53a20.84,20.84,0,0,1,0-29.48l11.53-11.53a20.84,20.84,0,0,1,29.48,0L296.13,825a20.84,20.84,0,0,1,0,29.48L284.6,866A20.84,20.84,0,0,1,255.12,866Z"/><polygon class="cls-9" points="254.81 963.22 310.16 948.39 269.65 907.87 254.81 963.22"/></g>
      <g id="Pattern-4" data-name="Pattern"><path class="cls-7" d="M-7,870l-11.53-11.53a20.84,20.84,0,0,1,0-29.48L-7,817.47a20.84,20.84,0,0,1,29.48,0L34.05,829a20.84,20.84,0,0,1,0,29.48L22.52,870A20.84,20.84,0,0,1-7,870Z"/><polygon class="cls-5" points="-8.27 967.22 47.08 952.39 6.57 911.87 -8.27 967.22"/><path class="cls-9" d="M-5,866l-11.53-11.53a20.84,20.84,0,0,1,0-29.48L-5,813.47a20.84,20.84,0,0,1,29.48,0L36.05,825a20.84,20.84,0,0,1,0,29.48L24.52,866A20.84,20.84,0,0,1-5,866Z"/><polygon class="cls-9" points="-5.26 963.22 50.08 948.39 9.57 907.87 -5.26 963.22"/></g>
      <g id="Pattern-5" data-name="Pattern"><path class="cls-2" d="M796.2,603.09a10.61,10.61,0,0,1,17.51,5.58l3.77,17.25,3.77,17.25a10.61,10.61,0,0,1-13.59,12.37l-16.82-5.36L774,644.83a10.61,10.61,0,0,1-3.92-18L783.15,615Z"/><polyline class="cls-4" points="773.26 758.59 774.95 780.73 791.19 765.6 792.88 787.73 809.13 772.61 810.83 794.74"/><path class="cls-5" d="M796.07,695.86c0,6.14-14.44,6.74-18.46,10.76s-4.63,18.46-10.76,18.46-6.74-14.44-10.76-18.46-18.46-4.63-18.46-10.76,14.44-6.74,18.46-10.76,4.63-18.46,10.76-18.46,6.74,14.44,10.76,18.46S796.07,689.72,796.07,695.86Z"/><path
        class="cls-6"
        d="M692.67,704.12l5.94,4.57a4.14,4.14,0,0,0,3.8.66l7.13-2.3a4.14,4.14,0,0,1,5.18,5.33l-2.51,7.06a4.14,4.14,0,0,0,.55,3.82l4.39,6.07a4.14,4.14,0,0,1-3.47,6.57l-7.49-.2a4.14,4.14,0,0,0-3.46,1.7l-4.41,6.05a4.14,4.14,0,0,1-7.32-1.27L688.87,735a4.14,4.14,0,0,0-2.69-2.77l-7.12-2.33a4.14,4.14,0,0,1-1.06-7.36l6.18-4.24a4.14,4.14,0,0,0,1.8-3.41V707.4A4.14,4.14,0,0,1,692.67,704.12Z"/>
        <text class="cls-8" transform="translate(696.28 664.69)">X</text><path class="cls-9" d="M799.44,599.86A10.61,10.61,0,0,1,817,605.44l3.77,17.25,3.77,17.25a10.61,10.61,0,0,1-13.59,12.37L794.07,647l-16.82-5.36a10.61,10.61,0,0,1-3.92-18l13.06-11.89Z"/><polyline class="cls-9" points="776.49 755.36 778.18 777.49 794.43 762.37 796.12 784.5 812.37 769.38 814.06 791.51"/><path class="cls-9" d="M799.3,692.62c0,6.14-14.44,6.74-18.46,10.76s-4.63,18.46-10.76,18.46-6.74-14.44-10.76-18.46-18.46-4.63-18.46-10.76,14.44-6.74,18.46-10.76,4.63-18.46,10.76-18.46,6.74,14.44,10.76,18.46S799.3,686.49,799.3,692.62Z"/><path
          class="cls-9"
          d="M695.9,700.88l5.94,4.57a4.14,4.14,0,0,0,3.8.66l7.13-2.3a4.14,4.14,0,0,1,5.18,5.33l-2.51,7.06A4.14,4.14,0,0,0,716,720l4.39,6.07a4.14,4.14,0,0,1-3.47,6.57l-7.49-.2a4.14,4.14,0,0,0-3.46,1.7l-4.41,6.05a4.14,4.14,0,0,1-7.32-1.27l-2.12-7.18a4.14,4.14,0,0,0-2.69-2.77l-7.12-2.33a4.14,4.14,0,0,1-1.06-7.36l6.18-4.24a4.14,4.14,0,0,0,1.8-3.41v-7.49A4.14,4.14,0,0,1,695.9,700.88Z"/>
        <text class="cls-10" transform="translate(699.51 661.46)">X</text>
        <g id="Dots-4" data-name="Dots"><circle cx="770.08" cy="692.62" r="3.09"/><circle cx="737.51" cy="758.88" r="3.09"/></g>
      </g>
      <g id="Pattern-6" data-name="Pattern"><path class="cls-2" d="M536.13,603.09a10.61,10.61,0,0,1,17.51,5.58l3.77,17.25,3.77,17.25a10.61,10.61,0,0,1-13.59,12.37l-16.82-5.36-16.82-5.36a10.61,10.61,0,0,1-3.92-18L523.07,615Z"/><path class="cls-3" d="M546.8,736.63c3.83-5,10.18-.14,14-5.13s-2.53-9.86,1.3-14.86,10.18-.14,14-5.13-2.52-9.86,1.3-14.87,10.18-.14,14-5.14"/><polyline class="cls-4" points="513.18 758.59 514.87 780.73 531.11 765.6 532.8 787.73 549.05 772.61 550.75 794.74"/><path class="cls-5" d="M536,695.86c0,6.14-14.44,6.74-18.46,10.76s-4.63,18.46-10.76,18.46S500,710.64,496,706.62s-18.46-4.63-18.46-10.76S492,689.12,496,685.1s4.63-18.46,10.76-18.46,6.74,14.44,10.76,18.46S536,689.72,536,695.86Z"/><path
        class="cls-6"
        d="M432.59,704.12l5.94,4.57a4.14,4.14,0,0,0,3.8.66l7.13-2.3a4.14,4.14,0,0,1,5.18,5.33l-2.51,7.06a4.14,4.14,0,0,0,.55,3.82l4.39,6.07a4.14,4.14,0,0,1-3.47,6.57l-7.49-.2a4.14,4.14,0,0,0-3.46,1.7l-4.41,6.05a4.14,4.14,0,0,1-7.32-1.27L428.79,735a4.14,4.14,0,0,0-2.69-2.77L419,729.89a4.14,4.14,0,0,1-1.06-7.36l6.18-4.24a4.14,4.14,0,0,0,1.8-3.41V707.4A4.14,4.14,0,0,1,432.59,704.12Z"/><path class="cls-7" d="M617.23,671.32,605.7,659.79a20.84,20.84,0,0,1,0-29.48l11.53-11.53a20.84,20.84,0,0,1,29.48,0l11.53,11.53a20.84,20.84,0,0,1,0,29.48l-11.53,11.53A20.84,20.84,0,0,1,617.23,671.32Z"/>
        <text class="cls-8" transform="translate(436.2 664.69)">X</text><polygon class="cls-5" points="615.93 768.53 671.27 753.7 630.76 713.18 615.93 768.53"/><path class="cls-9" d="M539.36,599.86a10.61,10.61,0,0,1,17.51,5.58l3.77,17.25,3.77,17.25a10.61,10.61,0,0,1-13.59,12.37L534,647l-16.82-5.36a10.61,10.61,0,0,1-3.92-18l13.06-11.89Z"/><path class="cls-9" d="M550,733.4c3.83-5,10.18-.14,14-5.13s-2.53-9.86,1.3-14.86,10.18-.14,14-5.13-2.52-9.86,1.3-14.87,10.18-.14,14-5.14"/><polyline class="cls-9" points="516.41 755.36 518.1 777.49 534.35 762.37 536.04 784.5 552.29 769.38 553.98 791.51"/><path class="cls-9" d="M539.22,692.62c0,6.14-14.44,6.74-18.46,10.76s-4.63,18.46-10.76,18.46-6.74-14.44-10.76-18.46-18.46-4.63-18.46-10.76,14.44-6.74,18.46-10.76S503.86,663.4,510,663.4s6.74,14.44,10.76,18.46S539.22,686.49,539.22,692.62Z"/><path
          class="cls-9"
          d="M435.82,700.88l5.94,4.57a4.14,4.14,0,0,0,3.8.66l7.13-2.3a4.14,4.14,0,0,1,5.18,5.33l-2.51,7.06a4.14,4.14,0,0,0,.55,3.82l4.39,6.07a4.14,4.14,0,0,1-3.47,6.57l-7.49-.2a4.14,4.14,0,0,0-3.46,1.7l-4.41,6.05a4.14,4.14,0,0,1-7.32-1.27L432,731.75a4.14,4.14,0,0,0-2.69-2.77l-7.12-2.33a4.14,4.14,0,0,1-1.06-7.36l6.18-4.24a4.14,4.14,0,0,0,1.8-3.41v-7.49A4.14,4.14,0,0,1,435.82,700.88Z"/>
        <text class="cls-10" transform="translate(439.43 661.46)">X</text>
        <g id="Dots-5" data-name="Dots"><circle cx="598.88" cy="738.92" r="3.09"/><circle cx="572.34" cy="670.4" r="3.09"/><circle cx="510" cy="692.62" r="3.09"/><circle cx="477.43" cy="758.88" r="3.09"/></g><path class="cls-9" d="M619.23,667.32,607.7,655.79a20.84,20.84,0,0,1,0-29.48l11.53-11.53a20.84,20.84,0,0,1,29.48,0l11.53,11.53a20.84,20.84,0,0,1,0,29.48l-11.53,11.53A20.84,20.84,0,0,1,619.23,667.32Z"/><polygon class="cls-9" points="618.93 764.53 674.27 749.7 633.76 709.18 618.93 764.53"/></g>
      <g id="Pattern-7" data-name="Pattern"><path class="cls-2" d="M276,603.09a10.61,10.61,0,0,1,17.51,5.58l3.77,17.25,3.77,17.25a10.61,10.61,0,0,1-13.59,12.37l-16.82-5.36-16.82-5.36a10.61,10.61,0,0,1-3.92-18L263,615Z"/><path class="cls-3" d="M286.72,736.63c3.83-5,10.18-.14,14-5.13s-2.53-9.86,1.3-14.86,10.18-.14,14-5.13-2.52-9.86,1.3-14.87,10.18-.14,14-5.14"/><polyline class="cls-4" points="253.1 758.59 254.79 780.73 271.03 765.6 272.72 787.73 288.97 772.61 290.67 794.74"/><path class="cls-5" d="M275.91,695.86c0,6.14-14.44,6.74-18.46,10.76s-4.63,18.46-10.76,18.46-6.74-14.44-10.76-18.46-18.46-4.63-18.46-10.76,14.44-6.74,18.46-10.76,4.63-18.46,10.76-18.46,6.74,14.44,10.76,18.46S275.91,689.72,275.91,695.86Z"/><path
        class="cls-6"
        d="M172.51,704.12l5.94,4.57a4.14,4.14,0,0,0,3.8.66l7.13-2.3a4.14,4.14,0,0,1,5.18,5.33L192,719.43a4.14,4.14,0,0,0,.55,3.82l4.39,6.07a4.14,4.14,0,0,1-3.47,6.57l-7.49-.2a4.14,4.14,0,0,0-3.46,1.7l-4.41,6.05a4.14,4.14,0,0,1-7.32-1.27L168.72,735a4.14,4.14,0,0,0-2.69-2.77l-7.12-2.33a4.14,4.14,0,0,1-1.06-7.36L164,718.3a4.14,4.14,0,0,0,1.8-3.41V707.4A4.14,4.14,0,0,1,172.51,704.12Z"/><path class="cls-7" d="M357.15,671.32l-11.53-11.53a20.84,20.84,0,0,1,0-29.48l11.53-11.53a20.84,20.84,0,0,1,29.48,0l11.53,11.53a20.84,20.84,0,0,1,0,29.48l-11.53,11.53A20.84,20.84,0,0,1,357.15,671.32Z"/>
        <text class="cls-8" transform="translate(176.12 664.69)">X</text><polygon class="cls-5" points="355.85 768.53 411.2 753.7 370.68 713.18 355.85 768.53"/><path class="cls-9" d="M279.28,599.86a10.61,10.61,0,0,1,17.51,5.58l3.77,17.25,3.77,17.25a10.61,10.61,0,0,1-13.59,12.37L273.91,647l-16.82-5.36a10.61,10.61,0,0,1-3.92-18l13.06-11.89Z"/><path class="cls-9" d="M290,733.4c3.83-5,10.18-.14,14-5.13s-2.53-9.86,1.3-14.86,10.18-.14,14-5.13-2.52-9.86,1.3-14.87,10.18-.14,14-5.14"/><polyline class="cls-9" points="256.33 755.36 258.02 777.49 274.27 762.37 275.96 784.5 292.21 769.38 293.9 791.51"/><path class="cls-9" d="M279.14,692.62c0,6.14-14.44,6.74-18.46,10.76s-4.63,18.46-10.76,18.46-6.74-14.44-10.76-18.46-18.46-4.63-18.46-10.76,14.44-6.74,18.46-10.76,4.63-18.46,10.76-18.46,6.74,14.44,10.76,18.46S279.14,686.49,279.14,692.62Z"/><path
          class="cls-9"
          d="M175.74,700.88l5.94,4.57a4.14,4.14,0,0,0,3.8.66l7.13-2.3a4.14,4.14,0,0,1,5.18,5.33l-2.51,7.06a4.14,4.14,0,0,0,.55,3.82l4.39,6.07a4.14,4.14,0,0,1-3.47,6.57l-7.49-.2a4.14,4.14,0,0,0-3.46,1.7l-4.41,6.05a4.14,4.14,0,0,1-7.32-1.27l-2.12-7.18a4.14,4.14,0,0,0-2.69-2.77l-7.12-2.33a4.14,4.14,0,0,1-1.06-7.36l6.18-4.24a4.14,4.14,0,0,0,1.8-3.41v-7.49A4.14,4.14,0,0,1,175.74,700.88Z"/>
        <text class="cls-10" transform="translate(179.35 661.46)">X</text>
        <g id="Dots-6" data-name="Dots"><circle cx="338.8" cy="738.92" r="3.09"/><circle cx="312.26" cy="670.4" r="3.09"/><circle cx="249.92" cy="692.62" r="3.09"/><circle cx="217.35" cy="758.88" r="3.09"/></g><path class="cls-9" d="M359.15,667.32l-11.53-11.53a20.84,20.84,0,0,1,0-29.48l11.53-11.53a20.84,20.84,0,0,1,29.48,0l11.53,11.53a20.84,20.84,0,0,1,0,29.48l-11.53,11.53A20.84,20.84,0,0,1,359.15,667.32Z"/><polygon class="cls-9" points="358.85 764.53 414.2 749.7 373.68 709.18 358.85 764.53"/></g>
      <g id="Pattern-8" data-name="Pattern"><path class="cls-2" d="M16,603.09a10.61,10.61,0,0,1,17.51,5.58l3.77,17.25L41,643.18a10.61,10.61,0,0,1-13.59,12.37L10.6,650.19l-16.82-5.36a10.61,10.61,0,0,1-3.92-18L2.91,615Z"/><path class="cls-3" d="M26.64,736.63c3.83-5,10.18-.14,14-5.13s-2.53-9.86,1.3-14.86,10.18-.14,14-5.13-2.52-9.86,1.3-14.87,10.18-.14,14-5.14"/><polyline class="cls-4" points="-6.98 758.59 -5.29 780.73 10.96 765.6 12.64 787.73 28.89 772.61 30.59 794.74"/><path class="cls-5" d="M15.83,695.86c0,6.14-14.44,6.74-18.46,10.76s-4.63,18.46-10.76,18.46-6.74-14.44-10.76-18.46S-42.61,702-42.61,695.86s14.44-6.74,18.46-10.76,4.63-18.46,10.76-18.46,6.74,14.44,10.76,18.46S15.83,689.72,15.83,695.86Z"/><path class="cls-7" d="M97.07,671.32,85.54,659.79a20.84,20.84,0,0,1,0-29.48l11.53-11.53a20.84,20.84,0,0,1,29.48,0l11.53,11.53a20.84,20.84,0,0,1,0,29.48l-11.53,11.53A20.84,20.84,0,0,1,97.07,671.32Z"/><polygon class="cls-5" points="95.77 768.53 151.12 753.7 110.6 713.18 95.77 768.53"/><path class="cls-9" d="M19.2,599.86a10.61,10.61,0,0,1,17.51,5.58l3.77,17.25,3.77,17.25a10.61,10.61,0,0,1-13.59,12.37L13.83,647-3,641.59a10.61,10.61,0,0,1-3.92-18L6.14,611.75Z"/><path class="cls-9" d="M29.87,733.4c3.83-5,10.18-.14,14-5.13s-2.53-9.86,1.3-14.86,10.18-.14,14-5.13-2.52-9.86,1.3-14.87,10.18-.14,14-5.14"/><polyline class="cls-9" points="-3.75 755.36 -2.06 777.49 14.19 762.37 15.88 784.5 32.13 769.38 33.82 791.51"/><path class="cls-9" d="M19.06,692.62c0,6.14-14.44,6.74-18.46,10.76S-4,721.84-10.16,721.84s-6.74-14.44-10.76-18.46-18.46-4.63-18.46-10.76,14.44-6.74,18.46-10.76,4.63-18.46,10.76-18.46S-3.42,677.84.6,681.86,19.06,686.49,19.06,692.62Z"/>
        <g id="Dots-7" data-name="Dots"><circle cx="78.72" cy="738.92" r="3.09"/><circle cx="52.18" cy="670.4" r="3.09"/></g><path class="cls-9" d="M99.07,667.32,87.54,655.79a20.84,20.84,0,0,1,0-29.48l11.53-11.53a20.84,20.84,0,0,1,29.48,0l11.53,11.53a20.84,20.84,0,0,1,0,29.48l-11.53,11.53A20.84,20.84,0,0,1,99.07,667.32Z"/><polygon class="cls-9" points="98.77 764.53 154.12 749.7 113.6 709.18 98.77 764.53"/></g>
      <g id="Pattern-9" data-name="Pattern"><path class="cls-2" d="M640.16,404.4A10.61,10.61,0,0,1,657.67,410l3.77,17.25,3.77,17.25a10.61,10.61,0,0,1-13.59,12.37l-16.82-5.36L618,446.13a10.61,10.61,0,0,1-3.92-18l13.06-11.89Z"/><path class="cls-3" d="M650.83,537.94c3.83-5,10.18-.14,14-5.13s-2.53-9.86,1.3-14.86,10.18-.14,14-5.13-2.52-9.86,1.3-14.87,10.18-.14,14-5.14"/><polyline class="cls-4" points="617.21 559.9 618.9 582.03 635.15 566.91 636.83 589.04 653.08 573.91 654.78 596.05"/><path class="cls-5" d="M640,497.16c0,6.14-14.44,6.74-18.46,10.76s-4.63,18.46-10.76,18.46-6.74-14.44-10.76-18.46-18.46-4.63-18.46-10.76S596,490.42,600,486.4s4.63-18.46,10.76-18.46,6.74,14.44,10.76,18.46S640,491,640,497.16Z"/><path
        class="cls-6"
        d="M536.62,505.42l5.94,4.57a4.14,4.14,0,0,0,3.8.66l7.13-2.3a4.14,4.14,0,0,1,5.18,5.33l-2.51,7.06a4.14,4.14,0,0,0,.55,3.82l4.39,6.07a4.14,4.14,0,0,1-3.47,6.57l-7.49-.2a4.14,4.14,0,0,0-3.46,1.7l-4.41,6.05a4.14,4.14,0,0,1-7.32-1.27l-2.12-7.18a4.14,4.14,0,0,0-2.69-2.77L523,531.2a4.14,4.14,0,0,1-1.06-7.36l6.18-4.24a4.14,4.14,0,0,0,1.8-3.41V508.7A4.14,4.14,0,0,1,536.62,505.42Z"/><path class="cls-7" d="M721.26,472.63l-11.53-11.53a20.84,20.84,0,0,1,0-29.48l11.53-11.53a20.84,20.84,0,0,1,29.48,0l11.53,11.53a20.84,20.84,0,0,1,0,29.48l-11.53,11.53A20.84,20.84,0,0,1,721.26,472.63Z"/>
        <text class="cls-8" transform="translate(540.23 466)">X</text><polygon class="cls-5" points="719.96 569.83 775.31 555 734.79 514.48 719.96 569.83"/><path class="cls-9" d="M643.39,401.16a10.61,10.61,0,0,1,17.51,5.58L664.67,424l3.77,17.25a10.61,10.61,0,0,1-13.59,12.37L638,448.26,621.2,442.9a10.61,10.61,0,0,1-3.92-18l13.06-11.89Z"/><path class="cls-9" d="M654.06,534.7c3.83-5,10.18-.14,14-5.13s-2.53-9.86,1.3-14.86,10.18-.14,14-5.13-2.52-9.86,1.3-14.87,10.18-.14,14-5.14"/><polyline class="cls-9" points="620.45 556.66 622.13 578.8 638.38 563.67 640.07 585.8 656.32 570.68 658.01 592.81"/><path class="cls-9" d="M643.25,493.93c0,6.14-14.44,6.74-18.46,10.76s-4.63,18.46-10.76,18.46-6.74-14.44-10.76-18.46-18.46-4.63-18.46-10.76,14.44-6.74,18.46-10.76,4.63-18.46,10.76-18.46,6.74,14.44,10.76,18.46S643.25,487.79,643.25,493.93Z"/><path
          class="cls-9"
          d="M539.85,502.19l5.94,4.57a4.14,4.14,0,0,0,3.8.66l7.13-2.3a4.14,4.14,0,0,1,5.18,5.33l-2.51,7.06a4.14,4.14,0,0,0,.55,3.82l4.39,6.07a4.14,4.14,0,0,1-3.47,6.57l-7.49-.2a4.14,4.14,0,0,0-3.46,1.7l-4.41,6.05a4.14,4.14,0,0,1-7.32-1.27l-2.12-7.18a4.14,4.14,0,0,0-2.69-2.77L526.25,528a4.14,4.14,0,0,1-1.06-7.36l6.18-4.24a4.14,4.14,0,0,0,1.8-3.41v-7.49A4.14,4.14,0,0,1,539.85,502.19Z"/>
        <text class="cls-10" transform="translate(543.46 462.76)">X</text>
        <g id="Dots-8" data-name="Dots"><circle cx="702.92" cy="540.22" r="3.09"/><circle cx="676.37" cy="471.71" r="3.09"/><circle cx="614.03" cy="493.93" r="3.09"/><circle cx="581.47" cy="560.18" r="3.09"/></g><path class="cls-9" d="M723.26,468.63l-11.53-11.53a20.84,20.84,0,0,1,0-29.48l11.53-11.53a20.84,20.84,0,0,1,29.48,0l11.53,11.53a20.84,20.84,0,0,1,0,29.48l-11.53,11.53A20.84,20.84,0,0,1,723.26,468.63Z"/><polygon class="cls-9" points="722.96 565.83 778.31 551 737.79 510.48 722.96 565.83"/></g>
      <g id="Pattern-10" data-name="Pattern"><path class="cls-2" d="M380.08,404.4A10.61,10.61,0,0,1,397.59,410l3.77,17.25,3.77,17.25a10.61,10.61,0,0,1-13.59,12.37l-16.82-5.36-16.82-5.36a10.61,10.61,0,0,1-3.92-18L367,416.29Z"/><path class="cls-3" d="M390.75,537.94c3.83-5,10.18-.14,14-5.13s-2.53-9.86,1.3-14.86,10.18-.14,14-5.13-2.52-9.86,1.3-14.87,10.18-.14,14-5.14"/><polyline class="cls-4" points="357.13 559.9 358.82 582.03 375.07 566.91 376.75 589.04 393 573.91 394.7 596.05"/><path class="cls-5" d="M379.94,497.16c0,6.14-14.44,6.74-18.46,10.76s-4.63,18.46-10.76,18.46S344,511.95,340,507.93s-18.46-4.63-18.46-10.76,14.44-6.74,18.46-10.76,4.63-18.46,10.76-18.46,6.74,14.44,10.76,18.46S379.94,491,379.94,497.16Z"/><path
        class="cls-6"
        d="M276.54,505.42l5.94,4.57a4.14,4.14,0,0,0,3.8.66l7.13-2.3a4.14,4.14,0,0,1,5.18,5.33l-2.51,7.06a4.14,4.14,0,0,0,.55,3.82l4.39,6.07a4.14,4.14,0,0,1-3.47,6.57l-7.49-.2a4.14,4.14,0,0,0-3.46,1.7l-4.41,6.05a4.14,4.14,0,0,1-7.32-1.27l-2.12-7.18a4.14,4.14,0,0,0-2.69-2.77l-7.12-2.33a4.14,4.14,0,0,1-1.06-7.36l6.18-4.24a4.14,4.14,0,0,0,1.8-3.41V508.7A4.14,4.14,0,0,1,276.54,505.42Z"/><path class="cls-7" d="M461.18,472.63l-11.53-11.53a20.84,20.84,0,0,1,0-29.48l11.53-11.53a20.84,20.84,0,0,1,29.48,0l11.53,11.53a20.84,20.84,0,0,1,0,29.48l-11.53,11.53A20.84,20.84,0,0,1,461.18,472.63Z"/>
        <text class="cls-8" transform="translate(280.15 466)">X</text><polygon class="cls-5" points="459.88 569.83 515.23 555 474.71 514.48 459.88 569.83"/><path class="cls-9" d="M383.31,401.16a10.61,10.61,0,0,1,17.51,5.58L404.59,424l3.77,17.25a10.61,10.61,0,0,1-13.59,12.37l-16.82-5.36-16.82-5.36a10.61,10.61,0,0,1-3.92-18l13.06-11.89Z"/><path class="cls-9" d="M394,534.7c3.83-5,10.18-.14,14-5.13s-2.53-9.86,1.3-14.86,10.18-.14,14-5.13-2.52-9.86,1.3-14.87,10.18-.14,14-5.14"/><polyline class="cls-9" points="360.37 556.66 362.05 578.8 378.3 563.67 379.99 585.8 396.24 570.68 397.93 592.81"/><path class="cls-9" d="M383.17,493.93c0,6.14-14.44,6.74-18.46,10.76s-4.63,18.46-10.76,18.46-6.74-14.44-10.76-18.46-18.46-4.63-18.46-10.76,14.44-6.74,18.46-10.76,4.63-18.46,10.76-18.46,6.74,14.44,10.76,18.46S383.17,487.79,383.17,493.93Z"/><path
          class="cls-9"
          d="M279.78,502.19l5.94,4.57a4.14,4.14,0,0,0,3.8.66l7.13-2.3a4.14,4.14,0,0,1,5.18,5.33l-2.51,7.06a4.14,4.14,0,0,0,.55,3.82l4.39,6.07a4.14,4.14,0,0,1-3.47,6.57l-7.49-.2a4.14,4.14,0,0,0-3.46,1.7l-4.41,6.05a4.14,4.14,0,0,1-7.32-1.27L276,533.06a4.14,4.14,0,0,0-2.69-2.77L266.17,528a4.14,4.14,0,0,1-1.06-7.36l6.18-4.24a4.14,4.14,0,0,0,1.8-3.41v-7.49A4.14,4.14,0,0,1,279.78,502.19Z"/>
        <text class="cls-10" transform="translate(283.38 462.76)">X</text>
        <g id="Dots-9" data-name="Dots"><circle cx="442.84" cy="540.22" r="3.09"/><circle cx="416.29" cy="471.71" r="3.09"/><circle cx="353.95" cy="493.93" r="3.09"/><circle cx="321.39" cy="560.18" r="3.09"/></g><path class="cls-9" d="M463.18,468.63l-11.53-11.53a20.84,20.84,0,0,1,0-29.48l11.53-11.53a20.84,20.84,0,0,1,29.48,0l11.53,11.53a20.84,20.84,0,0,1,0,29.48l-11.53,11.53A20.84,20.84,0,0,1,463.18,468.63Z"/><polygon class="cls-9" points="462.88 565.83 518.23 551 477.71 510.48 462.88 565.83"/></g>
      <g id="Pattern-11" data-name="Pattern"><path class="cls-2" d="M120,404.4A10.61,10.61,0,0,1,137.51,410l3.77,17.25L145,444.49a10.61,10.61,0,0,1-13.59,12.37l-16.82-5.36L97.8,446.13a10.61,10.61,0,0,1-3.92-18l13.06-11.89Z"/><path class="cls-3" d="M130.67,537.94c3.83-5,10.18-.14,14-5.13s-2.53-9.86,1.3-14.86,10.18-.14,14-5.13-2.52-9.86,1.3-14.87,10.18-.14,14-5.14"/><polyline class="cls-4" points="97.05 559.9 98.74 582.03 114.99 566.91 116.67 589.04 132.92 573.91 134.62 596.05"/><path class="cls-5" d="M119.86,497.16c0,6.14-14.44,6.74-18.46,10.76s-4.63,18.46-10.76,18.46-6.74-14.44-10.76-18.46-18.46-4.63-18.46-10.76,14.44-6.74,18.46-10.76,4.63-18.46,10.76-18.46,6.74,14.44,10.76,18.46S119.86,491,119.86,497.16Z"/><path
        class="cls-6"
        d="M16.46,505.42,22.4,510a4.14,4.14,0,0,0,3.8.66l7.13-2.3a4.14,4.14,0,0,1,5.18,5.33L36,520.73a4.14,4.14,0,0,0,.55,3.82l4.39,6.07a4.14,4.14,0,0,1-3.47,6.57L30,537a4.14,4.14,0,0,0-3.46,1.7l-4.41,6.05a4.14,4.14,0,0,1-7.32-1.27l-2.12-7.18A4.14,4.14,0,0,0,10,533.52L2.86,531.2a4.14,4.14,0,0,1-1.06-7.36L8,519.6a4.14,4.14,0,0,0,1.8-3.41V508.7A4.14,4.14,0,0,1,16.46,505.42Z"/><path class="cls-7" d="M201.1,472.63l-11.53-11.53a20.84,20.84,0,0,1,0-29.48l11.53-11.53a20.84,20.84,0,0,1,29.48,0l11.53,11.53a20.84,20.84,0,0,1,0,29.48l-11.53,11.53A20.84,20.84,0,0,1,201.1,472.63Z"/>
        <text class="cls-8" transform="translate(20.07 466)">X</text><polygon class="cls-5" points="199.8 569.83 255.15 555 214.63 514.48 199.8 569.83"/><path class="cls-9" d="M123.23,401.16a10.61,10.61,0,0,1,17.51,5.58L144.51,424l3.77,17.25a10.61,10.61,0,0,1-13.59,12.37l-16.82-5.36L101,442.9a10.61,10.61,0,0,1-3.92-18l13.06-11.89Z"/><path class="cls-9" d="M133.9,534.7c3.83-5,10.18-.14,14-5.13s-2.53-9.86,1.3-14.86,10.18-.14,14-5.13-2.52-9.86,1.3-14.87,10.18-.14,14-5.14"/><polyline class="cls-9" points="100.29 556.66 101.97 578.8 118.22 563.67 119.91 585.8 136.16 570.68 137.85 592.81"/><path class="cls-9" d="M123.09,493.93c0,6.14-14.44,6.74-18.46,10.76S100,523.15,93.87,523.15s-6.74-14.44-10.76-18.46-18.46-4.63-18.46-10.76,14.44-6.74,18.46-10.76,4.63-18.46,10.76-18.46,6.74,14.44,10.76,18.46S123.09,487.79,123.09,493.93Z"/><path
          class="cls-9"
          d="M19.7,502.19l5.94,4.57a4.14,4.14,0,0,0,3.8.66l7.13-2.3a4.14,4.14,0,0,1,5.18,5.33l-2.51,7.06a4.14,4.14,0,0,0,.55,3.82l4.39,6.07A4.14,4.14,0,0,1,40.71,534l-7.49-.2a4.14,4.14,0,0,0-3.46,1.7l-4.41,6.05A4.14,4.14,0,0,1,18,540.24l-2.12-7.18a4.14,4.14,0,0,0-2.69-2.77L6.09,528A4.14,4.14,0,0,1,5,520.61l6.18-4.24A4.14,4.14,0,0,0,13,513v-7.49A4.14,4.14,0,0,1,19.7,502.19Z"/>
        <text class="cls-10" transform="translate(23.31 462.76)">X</text>
        <g id="Dots-10" data-name="Dots"><circle cx="182.76" cy="540.22" r="3.09"/><circle cx="156.21" cy="471.71" r="3.09"/><circle cx="93.87" cy="493.93" r="3.09"/><circle cx="61.31" cy="560.18" r="3.09"/></g><path class="cls-9" d="M203.1,468.63l-11.53-11.53a20.84,20.84,0,0,1,0-29.48l11.53-11.53a20.84,20.84,0,0,1,29.48,0l11.53,11.53a20.84,20.84,0,0,1,0,29.48l-11.53,11.53A20.84,20.84,0,0,1,203.1,468.63Z"/><polygon class="cls-9" points="202.8 565.83 258.15 551 217.63 510.48 202.8 565.83"/></g>
      <g id="Pattern-12" data-name="Pattern"><path class="cls-2" d="M744.19,205.7a10.61,10.61,0,0,1,17.51,5.58l3.77,17.25,3.77,17.25a10.61,10.61,0,0,1-13.59,12.37l-16.82-5.36L722,247.44a10.61,10.61,0,0,1-3.92-18l13.06-11.89Z"/><path class="cls-3" d="M754.86,339.24c3.83-5,10.18-.14,14-5.13s-2.53-9.86,1.3-14.86,10.18-.14,14-5.13-2.52-9.86,1.3-14.87,10.18-.14,14-5.14"/><polyline class="cls-4" points="721.24 361.2 722.93 383.33 739.18 368.21 740.87 390.34 757.12 375.22 758.81 397.35"/><path class="cls-5" d="M744.05,298.47c0,6.14-14.44,6.74-18.46,10.76s-4.63,18.46-10.76,18.46-6.74-14.44-10.76-18.46-18.46-4.63-18.46-10.76,14.44-6.74,18.46-10.76,4.63-18.46,10.76-18.46,6.74,14.44,10.76,18.46S744.05,292.33,744.05,298.47Z"/><path
        class="cls-6"
        d="M640.65,306.73l5.94,4.57a4.14,4.14,0,0,0,3.8.66l7.13-2.3A4.14,4.14,0,0,1,662.7,315L660.19,322a4.14,4.14,0,0,0,.55,3.82l4.39,6.07a4.14,4.14,0,0,1-3.47,6.57l-7.49-.2a4.14,4.14,0,0,0-3.46,1.7L646.3,346a4.14,4.14,0,0,1-7.32-1.27l-2.12-7.18a4.14,4.14,0,0,0-2.69-2.77L627,332.5a4.14,4.14,0,0,1-1.06-7.36l6.18-4.24a4.14,4.14,0,0,0,1.8-3.41V310A4.14,4.14,0,0,1,640.65,306.73Z"/>
        <text class="cls-8" transform="translate(644.26 267.3)">X</text><path class="cls-9" d="M747.42,202.47a10.61,10.61,0,0,1,17.51,5.58l3.77,17.25,3.77,17.25a10.61,10.61,0,0,1-13.59,12.37l-16.82-5.36-16.82-5.36a10.61,10.61,0,0,1-3.92-18l13.06-11.89Z"/><path class="cls-9" d="M758.1,336c3.83-5,10.18-.14,14-5.13S769.57,321,773.4,316s10.18-.14,14-5.13-2.52-9.86,1.3-14.87,10.18-.14,14-5.14"/><polyline class="cls-9" points="724.48 357.97 726.16 380.1 742.41 364.98 744.1 387.11 760.35 371.98 762.04 394.12"/><path class="cls-9" d="M747.28,295.23c0,6.14-14.44,6.74-18.46,10.76s-4.63,18.46-10.76,18.46S711.32,310,707.3,306s-18.46-4.63-18.46-10.76,14.44-6.74,18.46-10.76S711.93,266,718.06,266s6.74,14.44,10.76,18.46S747.28,289.1,747.28,295.23Z"/><path
          class="cls-9"
          d="M643.89,303.49l5.94,4.57a4.14,4.14,0,0,0,3.8.66l7.13-2.3a4.14,4.14,0,0,1,5.18,5.33l-2.51,7.06a4.14,4.14,0,0,0,.55,3.82l4.39,6.07a4.14,4.14,0,0,1-3.47,6.57l-7.49-.2a4.14,4.14,0,0,0-3.46,1.7l-4.41,6.05a4.14,4.14,0,0,1-7.32-1.27l-2.12-7.18a4.14,4.14,0,0,0-2.69-2.77l-7.12-2.33a4.14,4.14,0,0,1-1.06-7.36l6.18-4.24a4.14,4.14,0,0,0,1.8-3.41v-7.49A4.14,4.14,0,0,1,643.89,303.49Z"/>
        <text class="cls-10" transform="translate(647.5 264.07)">X</text>
        <g id="Dots-11" data-name="Dots"><circle cx="780.41" cy="273.01" r="3.09"/><circle cx="718.06" cy="295.23" r="3.09"/><circle cx="685.5" cy="361.49" r="3.09"/></g>
      </g>
      <g id="Pattern-13" data-name="Pattern"><path class="cls-2" d="M484.11,205.7a10.61,10.61,0,0,1,17.51,5.58l3.77,17.25,3.77,17.25a10.61,10.61,0,0,1-13.59,12.37l-16.82-5.36-16.82-5.36a10.61,10.61,0,0,1-3.92-18l13.06-11.89Z"/><path class="cls-3" d="M494.78,339.24c3.83-5,10.18-.14,14-5.13s-2.53-9.86,1.3-14.86,10.18-.14,14-5.13-2.52-9.86,1.3-14.87,10.18-.14,14-5.14"/><polyline class="cls-4" points="461.16 361.2 462.85 383.33 479.1 368.21 480.79 390.34 497.04 375.22 498.73 397.35"/><path class="cls-5" d="M484,298.47c0,6.14-14.44,6.74-18.46,10.76s-4.63,18.46-10.76,18.46S448,313.25,444,309.23s-18.46-4.63-18.46-10.76S440,291.73,444,287.7s4.63-18.46,10.76-18.46,6.74,14.44,10.76,18.46S484,292.33,484,298.47Z"/><path
        class="cls-6"
        d="M380.57,306.73l5.94,4.57a4.14,4.14,0,0,0,3.8.66l7.13-2.3a4.14,4.14,0,0,1,5.18,5.33L400.11,322a4.14,4.14,0,0,0,.55,3.82l4.39,6.07a4.14,4.14,0,0,1-3.47,6.57l-7.49-.2a4.14,4.14,0,0,0-3.46,1.7L386.22,346a4.14,4.14,0,0,1-7.32-1.27l-2.12-7.18a4.14,4.14,0,0,0-2.69-2.77L367,332.5a4.14,4.14,0,0,1-1.06-7.36l6.18-4.24a4.14,4.14,0,0,0,1.8-3.41V310A4.14,4.14,0,0,1,380.57,306.73Z"/><path class="cls-7" d="M565.22,273.93,553.68,262.4a20.84,20.84,0,0,1,0-29.48l11.53-11.53a20.84,20.84,0,0,1,29.48,0l11.53,11.53a20.84,20.84,0,0,1,0,29.48l-11.53,11.53A20.84,20.84,0,0,1,565.22,273.93Z"/>
        <text class="cls-8" transform="translate(384.18 267.3)">X</text><polygon class="cls-5" points="563.91 371.14 619.26 356.31 578.74 315.79 563.91 371.14"/><path class="cls-9" d="M487.34,202.47a10.61,10.61,0,0,1,17.51,5.58l3.77,17.25,3.77,17.25a10.61,10.61,0,0,1-13.59,12.37L482,249.57l-16.82-5.36a10.61,10.61,0,0,1-3.92-18l13.06-11.89Z"/><path class="cls-9" d="M498,336c3.83-5,10.18-.14,14-5.13s-2.53-9.86,1.3-14.86,10.18-.14,14-5.13S524.8,301,528.63,296s10.18-.14,14-5.14"/><polyline class="cls-9" points="464.4 357.97 466.08 380.1 482.33 364.98 484.02 387.11 500.27 371.98 501.96 394.12"/><path class="cls-9" d="M487.21,295.23c0,6.14-14.44,6.74-18.46,10.76s-4.63,18.46-10.76,18.46S451.24,310,447.22,306s-18.46-4.63-18.46-10.76,14.44-6.74,18.46-10.76S451.85,266,458,266s6.74,14.44,10.76,18.46S487.21,289.1,487.21,295.23Z"/><path
          class="cls-9"
          d="M383.81,303.49l5.94,4.57a4.14,4.14,0,0,0,3.8.66l7.13-2.3a4.14,4.14,0,0,1,5.18,5.33l-2.51,7.06a4.14,4.14,0,0,0,.55,3.82l4.39,6.07a4.14,4.14,0,0,1-3.47,6.57l-7.49-.2a4.14,4.14,0,0,0-3.46,1.7l-4.41,6.05a4.14,4.14,0,0,1-7.32-1.27L380,334.36a4.14,4.14,0,0,0-2.69-2.77l-7.12-2.33a4.14,4.14,0,0,1-1.06-7.36l6.18-4.24a4.14,4.14,0,0,0,1.8-3.41v-7.49A4.14,4.14,0,0,1,383.81,303.49Z"/>
        <text class="cls-10" transform="translate(387.42 264.07)">X</text>
        <g id="Dots-12" data-name="Dots"><circle cx="546.87" cy="341.53" r="3.09"/><circle cx="520.33" cy="273.01" r="3.09"/><circle cx="457.98" cy="295.23" r="3.09"/><circle cx="425.42" cy="361.49" r="3.09"/></g><path class="cls-9" d="M567.22,269.93,555.68,258.4a20.84,20.84,0,0,1,0-29.48l11.53-11.53a20.84,20.84,0,0,1,29.48,0l11.53,11.53a20.84,20.84,0,0,1,0,29.48l-11.53,11.53A20.84,20.84,0,0,1,567.22,269.93Z"/><polygon class="cls-9" points="566.91 367.14 622.26 352.31 581.74 311.79 566.91 367.14"/></g>
      <g id="Pattern-14" data-name="Pattern"><path class="cls-2" d="M224,205.7a10.61,10.61,0,0,1,17.51,5.58l3.77,17.25,3.77,17.25a10.61,10.61,0,0,1-13.59,12.37l-16.82-5.36-16.82-5.36a10.61,10.61,0,0,1-3.92-18L211,217.59Z"/><path class="cls-3" d="M234.7,339.24c3.83-5,10.18-.14,14-5.13s-2.53-9.86,1.3-14.86,10.18-.14,14-5.13-2.52-9.86,1.3-14.87,10.18-.14,14-5.14"/><polyline class="cls-4" points="201.08 361.2 202.77 383.33 219.02 368.21 220.71 390.34 236.96 375.22 238.65 397.35"/><path class="cls-5" d="M223.89,298.47c0,6.14-14.44,6.74-18.46,10.76s-4.63,18.46-10.76,18.46-6.74-14.44-10.76-18.46-18.46-4.63-18.46-10.76,14.44-6.74,18.46-10.76,4.63-18.46,10.76-18.46,6.74,14.44,10.76,18.46S223.89,292.33,223.89,298.47Z"/><path
        class="cls-6"
        d="M120.49,306.73l5.94,4.57a4.14,4.14,0,0,0,3.8.66l7.13-2.3a4.14,4.14,0,0,1,5.18,5.33L140,322a4.14,4.14,0,0,0,.55,3.82l4.39,6.07a4.14,4.14,0,0,1-3.47,6.57l-7.49-.2a4.14,4.14,0,0,0-3.46,1.7L126.14,346a4.14,4.14,0,0,1-7.32-1.27l-2.12-7.18a4.14,4.14,0,0,0-2.69-2.77l-7.12-2.33a4.14,4.14,0,0,1-1.06-7.36l6.18-4.24a4.14,4.14,0,0,0,1.8-3.41V310A4.14,4.14,0,0,1,120.49,306.73Z"/><path class="cls-7" d="M305.14,273.93,293.6,262.4a20.84,20.84,0,0,1,0-29.48l11.53-11.53a20.84,20.84,0,0,1,29.48,0l11.53,11.53a20.84,20.84,0,0,1,0,29.48l-11.53,11.53A20.84,20.84,0,0,1,305.14,273.93Z"/>
        <text class="cls-8" transform="translate(124.1 267.3)">X</text><polygon class="cls-5" points="303.83 371.14 359.18 356.31 318.66 315.79 303.83 371.14"/><path class="cls-9" d="M227.26,202.47a10.61,10.61,0,0,1,17.51,5.58l3.77,17.25,3.77,17.25a10.61,10.61,0,0,1-13.59,12.37l-16.82-5.36-16.82-5.36a10.61,10.61,0,0,1-3.92-18l13.06-11.89Z"/><path class="cls-9" d="M237.94,336c3.83-5,10.18-.14,14-5.13s-2.53-9.86,1.3-14.86,10.18-.14,14-5.13-2.52-9.86,1.3-14.87,10.18-.14,14-5.14"/><polyline class="cls-9" points="204.32 357.97 206.01 380.1 222.25 364.98 223.94 387.11 240.19 371.98 241.88 394.12"/><path class="cls-9" d="M227.13,295.23c0,6.14-14.44,6.74-18.46,10.76S204,324.45,197.9,324.45,191.16,310,187.14,306s-18.46-4.63-18.46-10.76,14.44-6.74,18.46-10.76S191.77,266,197.9,266s6.74,14.44,10.76,18.46S227.13,289.1,227.13,295.23Z"/><path
          class="cls-9"
          d="M123.73,303.49l5.94,4.57a4.14,4.14,0,0,0,3.8.66l7.13-2.3a4.14,4.14,0,0,1,5.18,5.33l-2.51,7.06a4.14,4.14,0,0,0,.55,3.82l4.39,6.07a4.14,4.14,0,0,1-3.47,6.57l-7.49-.2a4.14,4.14,0,0,0-3.46,1.7l-4.41,6.05a4.14,4.14,0,0,1-7.32-1.27l-2.12-7.18a4.14,4.14,0,0,0-2.69-2.77l-7.12-2.33a4.14,4.14,0,0,1-1.06-7.36l6.18-4.24a4.14,4.14,0,0,0,1.8-3.41v-7.49A4.14,4.14,0,0,1,123.73,303.49Z"/>
        <text class="cls-10" transform="translate(127.34 264.07)">X</text>
        <g id="Dots-13" data-name="Dots"><circle cx="286.79" cy="341.53" r="3.09"/><circle cx="260.25" cy="273.01" r="3.09"/><circle cx="197.9" cy="295.23" r="3.09"/><circle cx="165.34" cy="361.49" r="3.09"/></g><path class="cls-9" d="M307.14,269.93,295.6,258.4a20.84,20.84,0,0,1,0-29.48l11.53-11.53a20.84,20.84,0,0,1,29.48,0l11.53,11.53a20.84,20.84,0,0,1,0,29.48l-11.53,11.53A20.84,20.84,0,0,1,307.14,269.93Z"/><polygon class="cls-9" points="306.83 367.14 362.18 352.31 321.66 311.79 306.83 367.14"/></g>
      <g id="Pattern-15" data-name="Pattern"><path class="cls-3" d="M-25.38,339.24c3.83-5,10.18-.14,14-5.13s-2.53-9.86,1.3-14.86,10.18-.14,14-5.13-2.52-9.86,1.3-14.87,10.18-.14,14-5.14"/><path class="cls-7" d="M45.06,273.93,33.52,262.4a20.84,20.84,0,0,1,0-29.48l11.53-11.53a20.84,20.84,0,0,1,29.48,0l11.53,11.53a20.84,20.84,0,0,1,0,29.48L74.53,273.93A20.84,20.84,0,0,1,45.06,273.93Z"/><polygon class="cls-5" points="43.75 371.14 99.1 356.31 58.58 315.79 43.75 371.14"/><path class="cls-9" d="M-22.14,336c3.83-5,10.18-.14,14-5.13S-10.67,321-6.84,316s10.18-.14,14-5.13S4.64,301,8.47,296s10.18-.14,14-5.14"/>
        <g id="Dots-14" data-name="Dots"><circle cx="26.71" cy="341.53" r="3.09"/><circle cx="0.17" cy="273.01" r="3.09"/></g><path class="cls-9" d="M47.06,269.93,35.52,258.4a20.84,20.84,0,0,1,0-29.48l11.53-11.53a20.84,20.84,0,0,1,29.48,0l11.53,11.53a20.84,20.84,0,0,1,0,29.48L76.53,269.93A20.84,20.84,0,0,1,47.06,269.93Z"/><polygon class="cls-9" points="46.75 367.14 102.1 352.31 61.58 311.79 46.75 367.14"/></g>
      <g id="Pattern-16" data-name="Pattern"><path
        class="cls-6"
        d="M744.68,108l5.94,4.57a4.14,4.14,0,0,0,3.8.66l7.13-2.3a4.14,4.14,0,0,1,5.18,5.33l-2.51,7.06a4.14,4.14,0,0,0,.55,3.82l4.39,6.07a4.14,4.14,0,0,1-3.47,6.57l-7.49-.2a4.14,4.14,0,0,0-3.46,1.7l-4.41,6.05a4.14,4.14,0,0,1-7.32-1.27l-2.12-7.18a4.14,4.14,0,0,0-2.69-2.77l-7.12-2.33a4.14,4.14,0,0,1-1.06-7.36l6.18-4.24a4.14,4.14,0,0,0,1.8-3.41v-7.49A4.14,4.14,0,0,1,744.68,108Z"/>
        <text class="cls-8" transform="translate(748.29 68.61)">X</text><path
          class="cls-9"
          d="M747.92,104.8l5.94,4.57a4.14,4.14,0,0,0,3.8.66l7.13-2.3A4.14,4.14,0,0,1,770,113l-2.51,7.06a4.14,4.14,0,0,0,.55,3.82L772.4,130a4.14,4.14,0,0,1-3.47,6.57l-7.49-.2a4.14,4.14,0,0,0-3.46,1.7l-4.41,6.05a4.14,4.14,0,0,1-7.32-1.27l-2.12-7.18a4.14,4.14,0,0,0-2.69-2.77l-7.12-2.33a4.14,4.14,0,0,1-1.06-7.36l6.18-4.24a4.14,4.14,0,0,0,1.8-3.41v-7.49A4.14,4.14,0,0,1,747.92,104.8Z"/>
        <text class="cls-10" transform="translate(751.53 65.37)">X</text>
      </g>
      <g id="Pattern-17" data-name="Pattern"><path class="cls-2" d="M588.14,7a10.61,10.61,0,0,1,17.51,5.58l3.77,17.25,3.77,17.25A10.61,10.61,0,0,1,599.6,59.47l-16.82-5.36-16.82-5.36a10.61,10.61,0,0,1-3.92-18L575.08,18.9Z"/><path class="cls-3" d="M598.81,140.55c3.83-5,10.18-.14,14-5.13s-2.53-9.86,1.3-14.86,10.18-.14,14-5.13-2.52-9.86,1.3-14.87,10.18-.14,14-5.14"/><polyline class="cls-4" points="565.2 162.51 566.88 184.64 583.13 169.51 584.82 191.65 601.07 176.52 602.76 198.66"/><path class="cls-5" d="M588,99.77c0,6.14-14.44,6.74-18.46,10.76S564.92,129,558.78,129,552,114.56,548,110.53s-18.46-4.63-18.46-10.76S544,93,548,89s4.63-18.46,10.76-18.46S565.52,85,569.54,89,588,93.64,588,99.77Z"/><path
        class="cls-6"
        d="M484.6,108l5.94,4.57a4.14,4.14,0,0,0,3.8.66l7.13-2.3a4.14,4.14,0,0,1,5.18,5.33l-2.51,7.06a4.14,4.14,0,0,0,.55,3.82l4.39,6.07a4.14,4.14,0,0,1-3.47,6.57l-7.49-.2a4.14,4.14,0,0,0-3.46,1.7l-4.41,6.05a4.14,4.14,0,0,1-7.32-1.27l-2.12-7.18a4.14,4.14,0,0,0-2.69-2.77L471,133.81a4.14,4.14,0,0,1-1.06-7.36l6.18-4.24a4.14,4.14,0,0,0,1.8-3.41v-7.49A4.14,4.14,0,0,1,484.6,108Z"/><path class="cls-7" d="M669.25,75.24,657.71,63.7a20.84,20.84,0,0,1,0-29.48l11.53-11.53a20.84,20.84,0,0,1,29.48,0l11.53,11.53a20.84,20.84,0,0,1,0,29.48L698.72,75.24A20.84,20.84,0,0,1,669.25,75.24Z"/>
        <text class="cls-8" transform="translate(488.21 68.61)">X</text><polygon class="cls-5" points="667.94 172.44 723.29 157.61 682.77 117.09 667.94 172.44"/><path class="cls-9" d="M591.38,3.77a10.61,10.61,0,0,1,17.51,5.58l3.77,17.25,3.77,17.25a10.61,10.61,0,0,1-13.59,12.37L586,50.87l-16.82-5.36a10.61,10.61,0,0,1-3.92-18l13.06-11.89Z"/><path class="cls-9" d="M602,137.31c3.83-5,10.18-.14,14-5.13s-2.53-9.86,1.3-14.86,10.18-.14,14-5.13-2.52-9.86,1.3-14.87,10.18-.14,14-5.14"/><polyline class="cls-9" points="568.43 159.27 570.12 181.41 586.36 166.28 588.05 188.41 604.3 173.29 606 195.42"/><path class="cls-9" d="M591.24,96.54c0,6.14-14.44,6.74-18.46,10.76s-4.63,18.46-10.76,18.46-6.74-14.44-10.76-18.46-18.46-4.63-18.46-10.76,14.44-6.74,18.46-10.76S555.88,67.32,562,67.32s6.74,14.44,10.76,18.46S591.24,90.4,591.24,96.54Z"/><path
          class="cls-9"
          d="M487.84,104.8l5.94,4.57a4.14,4.14,0,0,0,3.8.66l7.13-2.3a4.14,4.14,0,0,1,5.18,5.33l-2.51,7.06a4.14,4.14,0,0,0,.55,3.82l4.39,6.07a4.14,4.14,0,0,1-3.47,6.57l-7.49-.2a4.14,4.14,0,0,0-3.46,1.7l-4.41,6.05a4.14,4.14,0,0,1-7.32-1.27L484,135.66a4.14,4.14,0,0,0-2.69-2.77l-7.12-2.33a4.14,4.14,0,0,1-1.06-7.36l6.18-4.24a4.14,4.14,0,0,0,1.8-3.41v-7.49A4.14,4.14,0,0,1,487.84,104.8Z"/>
        <text class="cls-10" transform="translate(491.45 65.37)">X</text>
        <g id="Dots-15" data-name="Dots"><circle cx="650.9" cy="142.83" r="3.09"/><circle cx="624.36" cy="74.32" r="3.09"/><circle cx="562.02" cy="96.54" r="3.09"/><circle cx="529.45" cy="162.79" r="3.09"/></g><path class="cls-9" d="M671.25,71.24,659.71,59.7a20.84,20.84,0,0,1,0-29.48l11.53-11.53a20.84,20.84,0,0,1,29.48,0l11.53,11.53a20.84,20.84,0,0,1,0,29.48L700.72,71.24A20.84,20.84,0,0,1,671.25,71.24Z"/><polygon class="cls-9" points="670.94 168.44 726.29 153.61 685.77 113.09 670.94 168.44"/></g>
      <g id="Pattern-18" data-name="Pattern"><path class="cls-2" d="M328.06,7a10.61,10.61,0,0,1,17.51,5.58l3.77,17.25,3.77,17.25a10.61,10.61,0,0,1-13.59,12.37l-16.82-5.36-16.82-5.36a10.61,10.61,0,0,1-3.92-18L315,18.9Z"/><path class="cls-3" d="M338.73,140.55c3.83-5,10.18-.14,14-5.13s-2.53-9.86,1.3-14.86,10.18-.14,14-5.13-2.52-9.86,1.3-14.87,10.18-.14,14-5.14"/><polyline class="cls-4" points="305.12 162.51 306.8 184.64 323.05 169.51 324.74 191.65 340.99 176.52 342.68 198.66"/><path class="cls-5" d="M327.92,99.77c0,6.14-14.44,6.74-18.46,10.76S304.84,129,298.7,129s-6.74-14.44-10.76-18.46-18.46-4.63-18.46-10.76S283.92,93,287.94,89s4.63-18.46,10.76-18.46S305.44,85,309.46,89,327.92,93.64,327.92,99.77Z"/><path
        class="cls-6"
        d="M224.52,108l5.94,4.57a4.14,4.14,0,0,0,3.8.66l7.13-2.3a4.14,4.14,0,0,1,5.18,5.33l-2.51,7.06a4.14,4.14,0,0,0,.55,3.82l4.39,6.07a4.14,4.14,0,0,1-3.47,6.57l-7.49-.2a4.14,4.14,0,0,0-3.46,1.7l-4.41,6.05a4.14,4.14,0,0,1-7.32-1.27l-2.12-7.18a4.14,4.14,0,0,0-2.69-2.77l-7.12-2.33a4.14,4.14,0,0,1-1.06-7.36l6.18-4.24a4.14,4.14,0,0,0,1.8-3.41v-7.49A4.14,4.14,0,0,1,224.52,108Z"/><path class="cls-7" d="M409.17,75.24,397.63,63.7a20.84,20.84,0,0,1,0-29.48l11.53-11.53a20.84,20.84,0,0,1,29.48,0l11.53,11.53a20.84,20.84,0,0,1,0,29.48L438.65,75.24A20.84,20.84,0,0,1,409.17,75.24Z"/>
        <text class="cls-8" transform="translate(228.13 68.61)">X</text><polygon class="cls-5" points="407.86 172.44 463.21 157.61 422.69 117.09 407.86 172.44"/><path class="cls-9" d="M331.3,3.77a10.61,10.61,0,0,1,17.51,5.58l3.77,17.25,3.77,17.25a10.61,10.61,0,0,1-13.59,12.37l-16.82-5.36L309.1,45.51a10.61,10.61,0,0,1-3.92-18l13.06-11.89Z"/><path class="cls-9" d="M342,137.31c3.83-5,10.18-.14,14-5.13s-2.53-9.86,1.3-14.86,10.18-.14,14-5.13-2.52-9.86,1.3-14.87,10.18-.14,14-5.14"/><polyline class="cls-9" points="308.35 159.27 310.04 181.41 326.29 166.28 327.97 188.41 344.22 173.29 345.92 195.42"/><path class="cls-9" d="M331.16,96.54c0,6.14-14.44,6.74-18.46,10.76s-4.63,18.46-10.76,18.46-6.74-14.44-10.76-18.46-18.46-4.63-18.46-10.76,14.44-6.74,18.46-10.76,4.63-18.46,10.76-18.46,6.74,14.44,10.76,18.46S331.16,90.4,331.16,96.54Z"/><path
          class="cls-9"
          d="M227.76,104.8l5.94,4.57a4.14,4.14,0,0,0,3.8.66l7.13-2.3a4.14,4.14,0,0,1,5.18,5.33l-2.51,7.06a4.14,4.14,0,0,0,.55,3.82l4.39,6.07a4.14,4.14,0,0,1-3.47,6.57l-7.49-.2a4.14,4.14,0,0,0-3.46,1.7l-4.41,6.05a4.14,4.14,0,0,1-7.32-1.27L224,135.66a4.14,4.14,0,0,0-2.69-2.77l-7.12-2.33a4.14,4.14,0,0,1-1.06-7.36l6.18-4.24a4.14,4.14,0,0,0,1.8-3.41v-7.49A4.14,4.14,0,0,1,227.76,104.8Z"/>
        <text class="cls-10" transform="translate(231.37 65.37)">X</text>
        <g id="Dots-16" data-name="Dots"><circle cx="390.82" cy="142.83" r="3.09"/><circle cx="364.28" cy="74.32" r="3.09"/><circle cx="301.94" cy="96.54" r="3.09"/><circle cx="269.37" cy="162.79" r="3.09"/></g><path class="cls-9" d="M411.17,71.24,399.63,59.7a20.84,20.84,0,0,1,0-29.48l11.53-11.53a20.84,20.84,0,0,1,29.48,0l11.53,11.53a20.84,20.84,0,0,1,0,29.48L440.65,71.24A20.84,20.84,0,0,1,411.17,71.24Z"/><polygon class="cls-9" points="410.86 168.44 466.21 153.61 425.69 113.09 410.86 168.44"/></g>
      <g id="Pattern-19" data-name="Pattern"><path class="cls-2" d="M68,7a10.61,10.61,0,0,1,17.51,5.58l3.77,17.25L93,47.1A10.61,10.61,0,0,1,79.44,59.47L62.61,54.11,45.79,48.74a10.61,10.61,0,0,1-3.92-18L54.92,18.9Z"/><path class="cls-3" d="M78.65,140.55c3.83-5,10.18-.14,14-5.13s-2.53-9.86,1.3-14.86,10.18-.14,14-5.13-2.52-9.86,1.3-14.87,10.18-.14,14-5.14"/><polyline class="cls-4" points="45.04 162.51 46.72 184.64 62.97 169.51 64.66 191.65 80.91 176.52 82.6 198.66"/><path class="cls-5" d="M67.84,99.77c0,6.14-14.44,6.74-18.46,10.76S44.76,129,38.62,129s-6.74-14.44-10.76-18.46S9.4,105.91,9.4,99.77,23.84,93,27.86,89s4.63-18.46,10.76-18.46S45.36,85,49.39,89,67.84,93.64,67.84,99.77Z"/><path class="cls-7" d="M149.09,75.24,137.55,63.7a20.84,20.84,0,0,1,0-29.48l11.53-11.53a20.84,20.84,0,0,1,29.48,0L190.1,34.23a20.84,20.84,0,0,1,0,29.48L178.57,75.24A20.84,20.84,0,0,1,149.09,75.24Z"/>
        <text class="cls-8" transform="translate(-31.95 68.61)">X</text><polygon class="cls-5" points="147.78 172.44 203.13 157.61 162.61 117.09 147.78 172.44"/><path class="cls-9" d="M71.22,3.77A10.61,10.61,0,0,1,88.73,9.36L92.5,26.61l3.77,17.25A10.61,10.61,0,0,1,82.67,56.24L65.85,50.87,49,45.51a10.61,10.61,0,0,1-3.92-18L58.16,15.66Z"/><path class="cls-9" d="M81.89,137.31c3.83-5,10.18-.14,14-5.13s-2.53-9.86,1.3-14.86,10.18-.14,14-5.13-2.52-9.86,1.3-14.87,10.18-.14,14-5.14"/><polyline class="cls-9" points="48.27 159.27 49.96 181.41 66.2 166.28 67.89 188.41 84.14 173.29 85.84 195.42"/><path class="cls-9" d="M71.08,96.54c0,6.14-14.44,6.74-18.46,10.76S48,125.76,41.86,125.76s-6.74-14.44-10.76-18.46-18.46-4.63-18.46-10.76S27.07,89.8,31.09,85.77s4.63-18.46,10.76-18.46S48.6,81.75,52.62,85.77,71.08,90.4,71.08,96.54Z"/>
        <text class="cls-10" transform="translate(-28.71 65.37)">X</text>
        <g id="Dots-17" data-name="Dots"><circle cx="130.74" cy="142.83" r="3.09"/><circle cx="104.2" cy="74.32" r="3.09"/><circle cx="41.86" cy="96.54" r="3.09"/><circle cx="9.29" cy="162.79" r="3.09"/></g><path class="cls-9" d="M151.09,71.24,139.55,59.7a20.84,20.84,0,0,1,0-29.48l11.53-11.53a20.84,20.84,0,0,1,29.48,0L192.1,30.23a20.84,20.84,0,0,1,0,29.48L180.57,71.24A20.84,20.84,0,0,1,151.09,71.24Z"/><polygon class="cls-9" points="150.78 168.44 206.13 153.61 165.61 113.09 150.78 168.44"/></g>
    </pattern>
  </defs>
  <title>Asset 2</title>
  <g id="Layer_2" data-name="Layer 2">
    <g id="Background"><rect class="cls-11" width="1367" height="769"/></g>
  </g>
</svg>
